# xmcd CD database file
#
# Track frame offsets:
#	150
#	37947
#	84187
#	107587
#	119771
#	137301
#	181788
#	228931
#	252403
#	286906
#	330993
#
# Disc length: 4718 seconds
#
# Revision: 0
# Processed by: cddbd v1.5.2PL0 Copyright (c) Steve Scherf et al.
# Submitted via: CDex 1.99.1
#
DISCID=83126c0b
DTITLE=David Baker - A Legacy in Music
DYEAR=2011
DGENRE=Jazz
TTITLE0=Kentucky Oysters
TTITLE1=Sandu
TTITLE2=Le Moir Noir
TTITLE3=Dizzy
TTITLE4=Now That He Is Safely Dead
TTITLE5=Concerto For Cello And Jazz Band
TTITLE6=Groovin For Diz
TTITLE7=Jubilee
TTITLE8=Concerto For Alto Saxophone And Orchestra
TTITLE9=Dance Of The Jitterbugs
TTITLE10=On The Road With The Hampton Sisters
EXTD=YEAR: 2011
EXTT0=
EXTT1=
EXTT2=
EXTT3=
EXTT4=
EXTT5=
EXTT6=
EXTT7=
EXTT8=
EXTT9=
EXTT10=
PLAYORDER=
